/* XPM */
static char *NormalSelect[]={
"32 32 3 1",
". c None",
"# c #000000",
"a c #ffffff",
"................................",
"................................",
"................................",
"................................",
"..#.............................",
"..##............................",
"..#a#...........................",
"..#aa#..........................",
"..#aaa#.........................",
"..#aaaa#........................",
"..#aaaaa#.......................",
"..#aaaaaa#......................",
"..#aaaaaaa#.....................",
"..#aaaaaaaa#....................",
"..#aaaaaaaaa#...................",
"..#aaaaaaaaaa#..................",
"..#aaaaaaaaaaa#.................",
"..#aaaaaaaaaaaa#................",
"..#aaaaaaa#######...............",
"..#aaa#aaa#.....................",
"..#aa#.#aaa#....................",
"..#a#..#aaa#....................",
"..##....#aaa#...................",
"..#.....#aaa#...................",
".........#aaa#..................",
".........#aaa#..................",
"..........#aaa#.................",
"..........#aaa#.................",
"...........###..................",
"................................",
"................................",
"................................"};
