/* XPM */
static char *Zooming[]={
"32 32 2 1",
". c None",
"# c #ffffff",
"................................",
"................................",
"................................",
"................................",
"................................",
"................................",
".............#####..............",
"...........##.....##............",
".........##.........##..........",
"........#.............#.........",
"........#.............#.........",
".......#...............#........",
".......#...............#........",
"......#.................#.......",
"......#.................#.......",
"......#.................#.......",
"......#.................#.......",
"......#.................#.......",
".......#...............#........",
".......#...............#........",
".......##.............#.........",
".......##.............#.........",
"......#####.........##..........",
".....#####.##.....##............",
"....#####....#####..............",
"...#####........................",
"..#####.........................",
"..####..........................",
"...##...........................",
"................................",
"................................",
"................................"};
